<svg width="42" height="42" viewBox="0 0 42 42" fill="none" xmlns="http://www.w3.org/2000/svg">
<mask id="mask0_35_1136" style="mask-type:alpha" maskUnits="userSpaceOnUse" x="0" y="0" width="42" height="42">
<g clip-path="url(#clip0_35_1136)">
<path fill-rule="evenodd" clip-rule="evenodd" d="M10.5 12C12.0913 12 13.6174 11.3679 14.7426 10.2426C15.8679 9.11742 16.5 7.5913 16.5 6C16.5 4.4087 15.8679 2.88258 14.7426 1.75736C13.6174 0.632141 12.0913 0 10.5 0C8.9087 0 7.38258 0.632141 6.25736 1.75736C5.13214 2.88258 4.5 4.4087 4.5 6C4.5 7.5913 5.13214 9.11742 6.25736 10.2426C7.38258 11.3679 8.9087 12 10.5 12ZM16.635 30V29.91C16.635 26.94 18.276 24.354 20.7 23.004C20.0906 20.5096 18.5882 18.3249 16.4771 16.8632C14.3659 15.4015 11.7923 14.7641 9.24302 15.0715C6.6937 15.3789 4.34538 16.6098 2.6422 18.5314C0.939007 20.4531 -0.000981345 22.9322 7.68818e-07 25.5V28.5C7.68818e-07 28.8978 0.158036 29.2794 0.439341 29.5607C0.720645 29.842 1.10218 30 1.5 30H4.5L5.835 40.686C5.88033 41.0487 6.05654 41.3824 6.33054 41.6244C6.60454 41.8663 6.95746 41.9999 7.323 42H13.68C14.0455 41.9999 14.3985 41.8663 14.6725 41.6244C14.9465 41.3824 15.1227 41.0487 15.168 40.686L16.5 30H16.635ZM29.781 23.061C29.5821 23.061 29.3913 23.14 29.2507 23.2807C29.11 23.4213 29.031 23.6121 29.031 23.811V25.764H33.27V23.814C33.27 23.6151 33.191 23.4243 33.0503 23.2837C32.9097 23.143 32.7189 23.064 32.52 23.064H29.781V23.061ZM24.531 23.811V25.764C22.242 25.764 20.385 27.624 20.385 29.913V37.854C20.385 40.143 22.242 42 24.531 42H37.767C40.056 42 41.913 40.143 41.913 37.854V29.91C41.913 27.621 40.059 25.764 37.77 25.764V23.814C37.77 22.4216 37.2169 21.0863 36.2323 20.1017C35.2477 19.1171 33.9124 18.564 32.52 18.564H29.781C28.3886 18.564 27.0533 19.1171 26.0687 20.1017C25.0841 21.0863 24.531 22.4216 24.531 23.814V23.811Z" fill="black"/>
</g>
</mask>
<g mask="url(#mask0_35_1136)">
<rect x="-3" width="46" height="43" fill="white"/>
</g>
<defs>
<clipPath id="clip0_35_1136">
<rect width="42" height="42" fill="white"/>
</clipPath>
</defs>
</svg>
