<svg width="42" height="42" viewBox="0 0 42 42" fill="none" xmlns="http://www.w3.org/2000/svg">
<mask id="mask0_35_1135" style="mask-type:alpha" maskUnits="userSpaceOnUse" x="0" y="0" width="42" height="42">
<path d="M24.7118 18.34C24.3836 18.0119 23.9385 17.8276 23.4745 17.8276C23.0105 17.8276 22.5654 18.0119 22.2373 18.34L21 19.5773C20.3435 20.2335 19.4532 20.6021 18.5249 20.602C17.5966 20.6018 16.7064 20.2329 16.0501 19.5764C15.3938 18.9199 15.0252 18.0295 15.0254 17.1013C15.0256 16.173 15.3945 15.2828 16.051 14.6265L25.9035 4.77051C28.2361 4.23995 30.6766 4.4583 32.878 5.39451C35.0794 6.33072 36.9296 7.93713 38.1655 9.98532C39.4015 12.0335 39.9602 14.4192 39.7623 16.8032C39.5644 19.1872 38.62 21.4481 37.0632 23.2645L33.3742 27.0008L24.7118 18.34ZM5.53175 7.82251C7.34258 6.01192 9.71114 4.86497 12.2545 4.5671C14.7978 4.26923 17.3673 4.83784 19.5475 6.18101L13.5747 12.152C12.2721 13.4411 11.5269 15.1896 11.4993 17.022C11.4716 18.8545 12.1637 20.6247 13.4269 21.9525C14.69 23.2802 16.4235 24.0597 18.2551 24.1234C20.0866 24.1871 21.8701 23.53 23.2225 22.2933L23.4745 22.0518L30.8997 29.477L23.4745 36.9005C22.8182 37.5567 21.9281 37.9253 21 37.9253C20.0719 37.9253 19.1818 37.5567 18.5255 36.9005L5.53 23.9085C4.47357 22.8522 3.63556 21.5982 3.06382 20.218C2.49208 18.8378 2.1978 17.3585 2.1978 15.8646C2.1978 14.3707 2.49208 12.8914 3.06382 11.5113C3.63556 10.1311 4.47357 8.87704 5.53 7.82076L5.53175 7.82251Z" fill="black"/>
</mask>
<g mask="url(#mask0_35_1135)">
<rect x="-1" width="46" height="43" fill="white"/>
</g>
</svg>
