<svg width="42" height="33" viewBox="0 0 42 33" fill="none" xmlns="http://www.w3.org/2000/svg">
<mask id="mask0_35_1134" style="mask-type:alpha" maskUnits="userSpaceOnUse" x="0" y="0" width="42" height="33">
<path d="M13 16C15.1217 16 17.1566 15.1571 18.6569 13.6569C20.1571 12.1566 21 10.1217 21 8C21 5.87827 20.1571 3.84344 18.6569 2.34315C17.1566 0.842854 15.1217 0 13 0C10.8783 0 8.84344 0.842854 7.34315 2.34315C5.84285 3.84344 5 5.87827 5 8C5 10.1217 5.84285 12.1566 7.34315 13.6569C8.84344 15.1571 10.8783 16 13 16ZM31 16C32.5913 16 34.1174 15.3679 35.2426 14.2426C36.3679 13.1174 37 11.5913 37 10C37 8.4087 36.3679 6.88258 35.2426 5.75736C34.1174 4.63214 32.5913 4 31 4C29.4087 4 27.8826 4.63214 26.7574 5.75736C25.6321 6.88258 25 8.4087 25 10C25 11.5913 25.6321 13.1174 26.7574 14.2426C27.8826 15.3679 29.4087 16 31 16ZM3.75 19C2.75544 19 1.80161 19.3951 1.09835 20.0983C0.395088 20.8016 0 21.7554 0 22.75V24C0 24 0 33 13 33C26 33 26 24 26 24V22.75C26 21.7554 25.6049 20.8016 24.9017 20.0983C24.1984 19.3951 23.2446 19 22.25 19H3.75ZM25.674 30.089C27.05 30.647 28.793 31 30.999 31C41.499 31 41.499 23 41.499 23V22.75C41.499 21.7556 41.104 20.8019 40.401 20.0987C39.698 19.3955 38.7444 19.0003 37.75 19H26.607C27.5062 20.0423 28 21.3735 27.998 22.75V24.045L27.997 24.102C27.9911 24.2961 27.9778 24.4899 27.957 24.683C27.9074 25.1294 27.8269 25.5718 27.716 26.007C27.3373 27.4989 26.6408 28.8913 25.674 30.089Z" fill="black"/>
</mask>
<g mask="url(#mask0_35_1134)">
<rect x="-2" y="-4" width="46" height="43" fill="white"/>
</g>
</svg>
