<svg width="39" height="32" viewBox="0 0 39 32" fill="none" xmlns="http://www.w3.org/2000/svg">
<g clip-path="url(#clip0_35_1140)">
<mask id="mask0_35_1140" style="mask-type:luminance" maskUnits="userSpaceOnUse" x="0" y="0" width="39" height="32">
<path fill-rule="evenodd" clip-rule="evenodd" d="M0 0H39V32H0V0Z" fill="white"/>
</mask>
<g mask="url(#mask0_35_1140)">
<mask id="mask1_35_1140" style="mask-type:luminance" maskUnits="userSpaceOnUse" x="0" y="0" width="39" height="32">
<path fill-rule="evenodd" clip-rule="evenodd" d="M0.156631 0.161621H38.8434V31.8384H0.156631V0.161621Z" fill="white"/>
</mask>
<g mask="url(#mask1_35_1140)">
<mask id="mask2_35_1140" style="mask-type:luminance" maskUnits="userSpaceOnUse" x="0" y="0" width="39" height="32">
<path fill-rule="evenodd" clip-rule="evenodd" d="M0.156631 0.161621H38.8434V31.8384H0.156631V0.161621Z" fill="white"/>
</mask>
<g mask="url(#mask2_35_1140)">
<path fill-rule="evenodd" clip-rule="evenodd" d="M32.6019 31.5517C36.4809 26.5998 37.6359 21.0279 36.0667 14.8363C34.3107 9.33227 30.8271 5.49195 25.6157 3.31547C20.2988 1.389 15.2283 1.91135 10.4038 4.8825C4.82653 8.76031 2.15039 14.1869 2.3752 21.1626C2.68599 25.0866 4.06627 28.5499 6.51618 31.5517C5.74603 31.5616 4.97604 31.5517 4.20636 31.5227C1.15542 27.1291 0.000433876 22.2439 0.741401 16.8676C1.87568 10.4337 5.20901 5.64532 10.7417 2.50286C15.2556 0.180598 19.9506 -0.302957 24.8268 1.05187C31.5167 3.24209 35.8832 7.79821 37.926 14.7202C39.406 20.8072 38.4015 26.4081 34.9117 31.5227C34.1422 31.5517 33.3721 31.5616 32.6019 31.5517Z" fill="#000001" fill-opacity="0.98"/>
<path fill-rule="evenodd" clip-rule="evenodd" d="M32.6019 31.5518C31.6441 31.5518 30.6863 31.5518 29.7286 31.5518C33.7782 27.4994 35.3468 22.5851 34.4329 16.8096C33.399 12.1706 30.8919 8.65917 26.9115 6.27549C23.1952 4.24284 19.3078 3.79791 15.249 4.94054C9.70832 6.8371 6.2057 10.6968 4.7415 16.5195C3.70951 22.3931 5.25875 27.4036 9.38968 31.5518C8.4319 31.5518 7.47412 31.5518 6.51618 31.5518C4.06627 28.5499 2.68599 25.0866 2.3752 21.1626C2.15039 14.1869 4.82653 8.76034 10.4038 4.88252C15.2283 1.91137 20.2988 1.38902 25.6157 3.31549C30.8271 5.49197 34.3107 9.33229 36.0667 14.8363C37.6359 21.028 36.4809 26.5998 32.6019 31.5518Z" fill="#41B6D1"/>
<path fill-rule="evenodd" clip-rule="evenodd" d="M29.7286 31.5517C22.9491 31.5517 16.1692 31.5517 9.3897 31.5517C5.25876 27.4035 3.70952 22.3931 4.74151 16.5195C6.20572 10.6968 9.70833 6.83708 15.249 4.94052C19.3078 3.79789 23.1953 4.24282 26.9115 6.27547C30.8919 8.65914 33.3991 12.1706 34.4329 16.8096C35.3468 22.5851 33.7782 27.4994 29.7286 31.5517Z" fill="#FDFDFD"/>
<path fill-rule="evenodd" clip-rule="evenodd" d="M16.8265 11.4699C16.9616 11.484 17.0744 11.4452 17.1646 11.3539C17.2397 11.3539 17.3149 11.3539 17.3899 11.3539C17.7543 11.2878 18.1205 11.2298 18.4885 11.1798C18.5667 11.1807 18.6322 11.2 18.6857 11.2379C18.5293 11.3801 18.4167 11.5541 18.3477 11.7602C18.0518 11.7812 17.7702 11.8392 17.5027 11.9343C17.3532 11.9291 17.2217 11.9677 17.1083 12.0505C16.8594 12.0713 16.6342 12.1487 16.4321 12.2826C16.1762 12.3563 15.9321 12.4626 15.6998 12.6017C15.5532 12.822 15.45 13.0638 15.3899 13.3272C15.2024 13.4918 14.9958 13.627 14.7701 13.7335C14.8132 13.8696 14.9164 13.9469 15.0801 13.9656C14.774 13.9944 14.4735 14.0524 14.1786 14.1398C14.1292 14.1323 14.0917 14.1515 14.0658 14.1979C14.233 14.2452 14.3833 14.3226 14.5165 14.43C14.2641 14.478 14.0012 14.507 13.7279 14.5171C13.6025 14.5499 13.4899 14.5984 13.3898 14.6622C13.3055 14.6572 13.2492 14.696 13.2208 14.7782C13.415 14.8492 13.6027 14.9363 13.7842 15.0394C12.4855 16.5455 11.5652 18.2577 11.0235 20.1759C11.328 19.8349 11.6849 19.564 12.0939 19.3634C11.9591 19.7001 11.7996 20.0484 11.6151 20.4081C11.2577 21.2817 11.0886 22.1911 11.108 23.1359C11.2977 22.9213 11.5043 22.7273 11.7277 22.5555C11.6684 24.747 12.5605 26.3624 14.4039 27.4019C14.6023 27.4987 14.8088 27.5666 15.0236 27.6049C15.142 27.7077 15.2735 27.7274 15.418 27.6631C15.4111 27.6275 15.3923 27.6085 15.3617 27.6049C14.4437 26.9206 13.6457 26.1082 12.9673 25.1672C12.1457 23.5984 12.1832 22.0511 13.0799 20.5242C13.7522 19.4347 14.6442 18.6027 15.7561 18.0285C15.9981 17.9878 16.2424 17.9685 16.4886 17.9705C17.1829 18.3327 17.6243 18.913 17.8125 19.7116C18.0138 20.2242 17.995 20.7272 17.7562 21.2206C17.251 21.7612 16.8566 22.3803 16.573 23.0779C16.257 23.9769 15.9191 24.8666 15.5589 25.7478C15.5011 26.2253 15.595 26.6706 15.8406 27.0826C16.3767 28.1476 17.1749 28.9219 18.235 29.4042C18.4247 29.5179 18.6313 29.6051 18.8549 29.6653C19.278 29.713 19.6914 29.7036 20.0943 29.6364C21.771 29.1338 22.9074 28.0309 23.5029 26.3281C23.5405 26.1151 23.5405 25.9026 23.5029 25.6897C23.0831 24.5544 22.6325 23.432 22.1507 22.3234C21.7856 21.8703 21.4662 21.3866 21.1929 20.8725C21.1146 19.8767 21.3962 19.0061 22.0381 18.2606C22.1546 18.1686 22.2768 18.0912 22.4042 18.0285C22.6465 17.9878 22.8904 17.9685 23.1367 17.9705C24.9684 18.823 26.1425 20.2546 26.658 22.2653C26.8387 23.8249 26.3791 25.1401 25.2776 26.2121C24.7868 26.6601 24.2985 27.1047 23.8127 27.5469C23.6714 27.58 23.6432 27.638 23.7282 27.7211C23.9688 27.6752 24.2037 27.6078 24.4324 27.518C24.464 27.4958 24.4826 27.4669 24.4888 27.4308C26.1379 26.6682 27.077 25.3525 27.3058 23.4842C27.3436 23.1939 27.3808 22.9038 27.4186 22.6135C27.5858 22.7668 27.755 22.9213 27.9256 23.0779C27.9183 23.1289 27.9369 23.1672 27.982 23.1939C28.0552 23.0506 28.0552 22.9148 27.982 22.7878C27.9048 21.5805 27.5667 20.4584 26.9679 19.4215C27.3577 19.5939 27.7239 19.8455 28.0665 20.1759C27.5317 18.2811 26.6304 16.5979 25.3621 15.1265C25.3232 15.0721 25.3322 15.0334 25.3902 15.0105C25.5537 14.9478 25.7227 14.9091 25.8973 14.8943C25.9109 14.8194 25.8918 14.7614 25.841 14.7202C25.6748 14.5966 25.4872 14.5386 25.2776 14.5462C25.0523 14.5074 24.8268 14.4687 24.6016 14.43C24.7046 14.3104 24.8359 14.2331 24.996 14.1979C24.8771 14.114 24.7457 14.0754 24.6016 14.0818C24.4139 14.043 24.2257 14.0044 24.038 13.9656C24.1209 13.8976 24.215 13.8394 24.3198 13.7916C24.1485 13.6455 23.9608 13.5293 23.7564 13.4433C23.6206 13.2333 23.5362 13.0013 23.5029 12.7469C23.1659 12.5054 22.7997 12.3312 22.4042 12.2245C22.3981 12.1887 22.3794 12.1597 22.3479 12.1374C22.1468 12.0615 21.94 12.0131 21.7282 11.9923C21.5778 11.8984 21.4086 11.8598 21.2212 11.8763C21.0329 11.7767 20.8261 11.7379 20.6013 11.7602C20.4441 11.7035 20.2751 11.6842 20.0943 11.7022C19.6813 11.6634 19.2679 11.6248 18.8549 11.5862C19.019 11.2786 19.2631 11.0657 19.5872 10.9476C19.7529 10.935 19.9123 10.8964 20.0662 10.8316C20.1264 10.8332 20.1732 10.8526 20.2069 10.8896C20.0532 10.96 19.9218 11.0664 19.8126 11.2088C20.2712 11.1674 20.722 11.1769 21.1647 11.2379C21.4538 11.3198 21.7541 11.3778 22.0661 11.4119C22.1564 11.3964 22.2313 11.4158 22.2916 11.4699C22.4049 11.5527 22.5366 11.5913 22.686 11.5862C22.8972 11.7043 23.1226 11.8106 23.362 11.9053C23.437 11.944 23.5125 11.944 23.5875 11.9053C23.8493 11.121 24.3372 10.5504 25.0523 10.1932C25.2928 10.1492 25.5182 10.072 25.7283 9.96094C27.3566 9.7211 28.6056 10.3207 29.4749 11.7602C30.2728 13.4181 30.0378 14.898 28.7708 16.2003C28.3808 16.4689 27.9672 16.6913 27.5312 16.8676C28.4062 18.4194 28.9791 20.0833 29.2496 21.8591C29.2874 22.0332 29.2874 22.2072 29.2496 22.3815C29.0519 21.9648 28.7887 21.5973 28.4608 21.2786C28.8219 22.6205 28.7843 23.9554 28.3481 25.2834C28.2986 24.6926 28.0733 24.1319 27.6721 23.6002C27.7465 24.609 27.521 25.5377 26.9959 26.3862C26.9898 26.1516 26.9239 25.9386 26.7987 25.7478C26.6387 26.6775 26.1599 27.374 25.3621 27.8371C25.397 27.6665 25.4163 27.4924 25.4185 27.3148C24.8099 27.9619 24.0865 28.407 23.2494 28.6497C23.0978 28.6404 22.948 28.6498 22.7986 28.6787C22.7467 28.695 22.7095 28.7239 22.686 28.7658C22.1418 29.2492 21.5219 29.5975 20.8268 29.8105C20.5337 29.8476 20.2521 29.9057 19.9816 29.9845C19.9438 29.9845 19.9066 29.9845 19.869 29.9845C19.3765 29.9944 18.8883 29.9561 18.4041 29.8685C18.3853 29.8685 18.3665 29.8685 18.3477 29.8685C18.2342 29.7861 18.1028 29.7473 17.9534 29.7525C17.335 29.5708 16.8091 29.2324 16.3758 28.7367C16.2647 28.7078 16.1521 28.6984 16.0378 28.7078C15.9243 28.6253 15.7928 28.5864 15.6434 28.5916C15.3954 28.5051 15.1513 28.4083 14.9109 28.3015C14.8843 28.2197 14.8279 28.1814 14.742 28.1854C14.3178 27.9521 13.9516 27.6421 13.6433 27.2568C13.6297 27.453 13.6767 27.6369 13.7842 27.808C13.7654 27.8371 13.7465 27.8661 13.7279 27.8952C12.9243 27.4064 12.4453 26.6908 12.2911 25.7478C12.2397 25.7959 12.202 25.8539 12.1785 25.9218C12.1596 26.0959 12.1408 26.2701 12.1222 26.4442C11.553 25.5637 11.3277 24.5963 11.446 23.5422C11.0177 24.0576 10.7924 24.6577 10.77 25.3415C10.2697 24.0036 10.2133 22.6496 10.601 21.2786C10.2941 21.6335 10.0312 22.0204 9.81218 22.4395C9.8834 21 10.2213 19.6262 10.8263 18.3186C11.0542 17.8392 11.2891 17.3652 11.5305 16.8967C9.57293 16.0264 8.85 14.5077 9.36144 12.3406C9.80825 11.2127 10.5877 10.4581 11.6995 10.0771C11.8347 10.091 11.9474 10.0523 12.0376 9.96094C13.6683 9.73694 14.8327 10.3947 15.5308 11.9343C15.944 11.7169 16.3759 11.5621 16.8265 11.4699Z" fill="#040404"/>
<path fill-rule="evenodd" clip-rule="evenodd" d="M12.0376 9.96095C11.9474 10.0523 11.8347 10.091 11.6995 10.0771C11.7899 9.98567 11.9025 9.94705 12.0376 9.96095Z" fill="#545454"/>
<path fill-rule="evenodd" clip-rule="evenodd" d="M25.7283 9.96094C25.5183 10.072 25.2928 10.1492 25.0523 10.1932C25.2539 10.0594 25.4793 9.98195 25.7283 9.96094Z" fill="#595959"/>
<path fill-rule="evenodd" clip-rule="evenodd" d="M20.2069 10.8896C20.1732 10.8526 20.1264 10.8332 20.0662 10.8316C19.9123 10.8964 19.7529 10.935 19.5872 10.9476C19.8046 10.791 20.0492 10.7427 20.3197 10.8025C20.2893 10.8442 20.2515 10.8733 20.2069 10.8896Z" fill="#6F6F6F"/>
<path fill-rule="evenodd" clip-rule="evenodd" d="M18.6857 11.2379C18.6323 11.2001 18.5667 11.1807 18.4885 11.1799C18.1205 11.2298 17.7543 11.2878 17.3899 11.3539C17.3962 11.3182 17.415 11.2891 17.4464 11.2668C17.8761 11.1606 18.308 11.1315 18.7421 11.1799C18.7352 11.2151 18.7163 11.2343 18.6857 11.2379Z" fill="#7D7D7D"/>
<path fill-rule="evenodd" clip-rule="evenodd" d="M21.1647 11.2379C21.4871 11.2221 21.7874 11.2801 22.0661 11.412C21.7541 11.3779 21.4538 11.3198 21.1647 11.2379Z" fill="#7D7D7D"/>
<path fill-rule="evenodd" clip-rule="evenodd" d="M17.1646 11.354C17.0744 11.4453 16.9616 11.4841 16.8265 11.47C16.9169 11.3787 17.0295 11.3401 17.1646 11.354Z" fill="#5A5A5A"/>
<path fill-rule="evenodd" clip-rule="evenodd" d="M22.2916 11.4699C22.4408 11.4648 22.5727 11.5034 22.686 11.5861C22.5367 11.5913 22.4049 11.5527 22.2916 11.4699Z" fill="#787878"/>
<path fill-rule="evenodd" clip-rule="evenodd" d="M18.8549 11.5862C19.2679 11.6248 19.6813 11.6634 20.0943 11.7022C19.652 11.7211 19.2199 11.7017 18.7984 11.6442C18.7984 11.6054 18.8172 11.5862 18.8549 11.5862Z" fill="#5A5A5A"/>
<path fill-rule="evenodd" clip-rule="evenodd" d="M18.7984 11.6442C19.2199 11.7017 19.652 11.7211 20.0943 11.7022C20.2751 11.6842 20.4441 11.7035 20.6013 11.7602C19.9805 11.7794 19.3607 11.7602 18.7421 11.7022C18.7491 11.6669 18.7678 11.6476 18.7984 11.6442Z" fill="#C8C8C8"/>
<path fill-rule="evenodd" clip-rule="evenodd" d="M20.6013 11.7602C20.8261 11.7379 21.0329 11.7767 21.2212 11.8762C21.0036 11.8585 20.7968 11.8197 20.6013 11.7602Z" fill="#7A7A7A"/>
<path fill-rule="evenodd" clip-rule="evenodd" d="M18.3477 11.7603C18.0882 11.8981 17.8066 11.9561 17.5027 11.9343C17.7702 11.8393 18.0518 11.7813 18.3477 11.7603Z" fill="#B1B1B1"/>
<path fill-rule="evenodd" clip-rule="evenodd" d="M21.2212 11.8763C21.4086 11.8598 21.5778 11.8984 21.7282 11.9923C21.5462 11.9821 21.3771 11.9435 21.2212 11.8763Z" fill="#989898"/>
<path fill-rule="evenodd" clip-rule="evenodd" d="M17.5027 11.9343C17.3891 12.017 17.2576 12.0557 17.1083 12.0505C17.2217 11.9677 17.3532 11.9291 17.5027 11.9343Z" fill="#8D8D8D"/>
<path fill-rule="evenodd" clip-rule="evenodd" d="M21.7282 11.9923C21.94 12.0132 22.1468 12.0615 22.3479 12.1374C22.3794 12.1597 22.3981 12.1887 22.4042 12.2246C22.1676 12.1641 21.9422 12.0867 21.7282 11.9923Z" fill="#848484"/>
<path fill-rule="evenodd" clip-rule="evenodd" d="M17.1083 12.0505C16.9062 12.1843 16.6809 12.2615 16.4321 12.2826C16.6342 12.1487 16.8595 12.0713 17.1083 12.0505Z" fill="#9E9E9E"/>
<path fill-rule="evenodd" clip-rule="evenodd" d="M15.0801 13.9657C15.1293 13.9581 15.167 13.9775 15.1927 14.0238C14.8552 14.0735 14.5172 14.1122 14.1786 14.1399C14.4735 14.0524 14.774 13.9944 15.0801 13.9657Z" fill="#818181"/>
<path fill-rule="evenodd" clip-rule="evenodd" d="M24.038 13.9657C24.2257 14.0044 24.4139 14.0431 24.6016 14.0819C24.3733 14.1006 24.148 14.0812 23.9254 14.0238C23.9513 13.9775 23.9885 13.9581 24.038 13.9657Z" fill="#7A7A7A"/>
<path fill-rule="evenodd" clip-rule="evenodd" d="M24.6016 14.43C24.8269 14.4688 25.0523 14.5074 25.2776 14.5462C25.0308 14.5651 24.7864 14.5457 24.5453 14.4882C24.552 14.4529 24.5711 14.4335 24.6016 14.43Z" fill="#979797"/>
<path fill-rule="evenodd" clip-rule="evenodd" d="M14.5165 14.43C14.5471 14.4335 14.566 14.4529 14.5729 14.4882C14.1744 14.527 13.78 14.585 13.3898 14.6622C13.4899 14.5984 13.6025 14.5499 13.7279 14.5171C14.0012 14.5071 14.2641 14.478 14.5165 14.43Z" fill="#939393"/>
<path fill-rule="evenodd" clip-rule="evenodd" d="M25.841 14.7202C25.8918 14.7614 25.9109 14.8194 25.8973 14.8943C25.7227 14.9091 25.5537 14.9478 25.3902 15.0105C25.5385 14.9004 25.6883 14.8038 25.841 14.7202Z" fill="#5E5E5E"/>
<path fill-rule="evenodd" clip-rule="evenodd" d="M16.4886 17.9705C16.2424 17.9686 15.9982 17.9878 15.7561 18.0285C15.8883 17.9442 16.0386 17.9055 16.2068 17.9125C16.3121 17.9128 16.4061 17.9322 16.4886 17.9705Z" fill="#7D7D7D"/>
<path fill-rule="evenodd" clip-rule="evenodd" d="M23.1367 17.9705C22.8904 17.9686 22.6465 17.9878 22.4042 18.0285C22.5243 17.9395 22.6651 17.9008 22.8267 17.9125C22.9411 17.9128 23.0448 17.932 23.1367 17.9705Z" fill="#7E7E7E"/>
<path fill-rule="evenodd" clip-rule="evenodd" d="M16.4321 20.2919C16.2741 20.226 16.1052 20.2163 15.925 20.263C15.8439 20.2848 15.7875 20.3331 15.7561 20.4081C15.5652 20.5373 15.4243 20.7113 15.3336 20.9305C15.3287 20.448 15.5446 20.1095 15.9814 19.9147C16.1128 19.8761 16.2443 19.8761 16.3758 19.9147C16.7529 20.1219 16.9501 20.4411 16.9674 20.8725C16.8551 20.6116 16.6767 20.4181 16.4321 20.2919Z" fill="#DEDEDE"/>
<path fill-rule="evenodd" clip-rule="evenodd" d="M22.7423 19.8858C23.2144 19.8976 23.5429 20.1297 23.7282 20.5822C23.766 20.679 23.766 20.7757 23.7282 20.8725C23.5401 20.5143 23.2487 20.3015 22.855 20.2339C22.4708 20.3104 22.2172 20.5424 22.0944 20.9305C22.1248 20.4616 22.3405 20.1134 22.7423 19.8858Z" fill="#DDDDDD"/>
<path fill-rule="evenodd" clip-rule="evenodd" d="M16.4321 20.292C16.1979 20.2823 15.9726 20.3209 15.7561 20.4082C15.7875 20.3332 15.8439 20.2848 15.9251 20.263C16.1052 20.2163 16.2741 20.226 16.4321 20.292Z" fill="#7C7C7C"/>
<path fill-rule="evenodd" clip-rule="evenodd" d="M23.0239 21.3948C22.9039 21.442 22.7728 21.4711 22.6297 21.4818C22.6612 21.5041 22.6797 21.533 22.686 21.5689C22.4668 21.4886 22.3445 21.3339 22.3197 21.1046C22.4877 21.3651 22.7219 21.4617 23.0239 21.3948Z" fill="#868686"/>
<path fill-rule="evenodd" clip-rule="evenodd" d="M15.6434 21.1046C15.8599 21.3799 16.1415 21.4671 16.4886 21.3657C16.7578 21.1847 16.7765 21.2233 16.5449 21.4818C16.091 21.6972 15.7904 21.5715 15.6434 21.1046Z" fill="#B9B9B9"/>
<path fill-rule="evenodd" clip-rule="evenodd" d="M22.686 21.5689C22.6797 21.533 22.6612 21.5041 22.6297 21.4818C22.7727 21.4711 22.9039 21.442 23.0239 21.3948C23.1761 21.3696 23.2978 21.2924 23.3903 21.1626C23.3953 21.3709 23.2922 21.4967 23.0802 21.54C22.9502 21.5687 22.8189 21.5784 22.686 21.5689Z" fill="#C8C8C8"/>
<path fill-rule="evenodd" clip-rule="evenodd" d="M27.4186 22.6136C27.3808 22.9038 27.3436 23.1939 27.3058 23.4842C27.2873 23.1726 27.3064 22.8626 27.3623 22.5555C27.3966 22.5625 27.4151 22.5822 27.4186 22.6136Z" fill="#979797"/>
<path fill-rule="evenodd" clip-rule="evenodd" d="M27.982 22.7878C28.0552 22.9148 28.0552 23.0506 27.982 23.1939C27.9369 23.1673 27.9183 23.129 27.9256 23.0779C27.9791 22.9955 27.9976 22.8985 27.982 22.7878Z" fill="#676767"/>
<path fill-rule="evenodd" clip-rule="evenodd" d="M21.2775 24.6449C20.171 24.5795 19.0632 24.5696 17.9534 24.616C17.8602 24.6514 17.7662 24.6803 17.6716 24.7029C17.703 24.6281 17.7595 24.5799 17.8406 24.558C18.9487 24.519 20.0566 24.519 21.1647 24.558C21.2166 24.5741 21.2538 24.6032 21.2775 24.6449Z" fill="#515151"/>
<path fill-rule="evenodd" clip-rule="evenodd" d="M21.2775 24.6449C21.7496 24.9224 21.7969 25.2707 21.4182 25.6898C20.914 26.1499 20.3225 26.4012 19.6435 26.4442C19.634 26.6386 19.6435 26.8319 19.6718 27.0246C19.8053 27.0611 19.9275 27.1193 20.0379 27.1988C20.171 27.2933 20.3208 27.3612 20.4887 27.402C20.8555 27.4495 21.2127 27.4396 21.5591 27.3729C21.8335 27.2898 22.0966 27.1738 22.3479 27.0246C22.4088 27.0745 22.4184 27.1325 22.376 27.1988C22.2172 27.3717 22.0385 27.507 21.8409 27.6049C21.6915 27.5998 21.5597 27.6387 21.4465 27.7211C21.1462 27.7211 20.8453 27.7211 20.545 27.7211C20.4317 27.6387 20.2999 27.5998 20.1506 27.6049C19.9484 27.497 19.7416 27.4002 19.5309 27.3148C19.3277 27.4291 19.1211 27.5261 18.9112 27.6049C18.4263 27.7252 17.938 27.7449 17.4464 27.6631C17.0421 27.6224 16.7884 27.4094 16.6856 27.0246C17.1798 27.4094 17.7338 27.5348 18.3477 27.402C18.7049 27.2887 19.0618 27.1825 19.4182 27.0826C19.4182 26.8696 19.4182 26.6572 19.4182 26.4442C19.3054 26.4442 19.1928 26.4442 19.0802 26.4442C18.9666 26.3618 18.8353 26.323 18.6858 26.3282C18.0679 26.1465 17.6359 25.7494 17.3899 25.1384C17.4071 24.9381 17.501 24.793 17.6716 24.703C17.7662 24.6803 17.8602 24.6514 17.9534 24.616C19.0632 24.5696 20.171 24.5795 21.2775 24.6449Z" fill="#0B0B0B"/>
<path fill-rule="evenodd" clip-rule="evenodd" d="M18.4041 25.1672C18.9355 25.2317 19.1798 25.5411 19.1365 26.0959C19.0802 26.0959 19.0238 26.0959 18.9675 26.0959C18.9126 25.6526 18.6685 25.4396 18.235 25.4575C18.2244 25.3148 18.2807 25.2178 18.4041 25.1672Z" fill="#E7E7E7"/>
<path fill-rule="evenodd" clip-rule="evenodd" d="M20.2634 25.2254C20.4335 25.2161 20.6024 25.2254 20.7704 25.2544C20.8177 25.313 20.8363 25.3809 20.8268 25.4575C20.3956 25.4342 20.1704 25.6472 20.1506 26.0959C19.9686 26.1111 19.8931 26.024 19.9253 25.8347C19.9721 25.5939 20.0847 25.3908 20.2634 25.2254Z" fill="#EAEAEA"/>
<path fill-rule="evenodd" clip-rule="evenodd" d="M18.6857 26.3282C18.8353 26.323 18.9666 26.3618 19.0802 26.4442C18.9308 26.4494 18.7993 26.4106 18.6857 26.3282Z" fill="#878787"/>
<path fill-rule="evenodd" clip-rule="evenodd" d="M20.0379 27.1988C20.2154 27.2127 20.3845 27.2609 20.545 27.3438C20.8824 27.3729 21.2205 27.3827 21.5591 27.3729C21.2127 27.4396 20.8555 27.4495 20.4887 27.4019C20.3208 27.3612 20.171 27.2933 20.0379 27.1988Z" fill="#909090"/>
<path fill-rule="evenodd" clip-rule="evenodd" d="M24.4888 27.4308C24.4826 27.4669 24.464 27.4958 24.4324 27.518C24.2037 27.6078 23.9688 27.6752 23.7282 27.7211C23.6431 27.638 23.6714 27.58 23.8127 27.5469C23.8364 27.5829 23.8736 27.6026 23.9254 27.6049C24.1141 27.5464 24.3018 27.4884 24.4888 27.4308Z" fill="#7B7B7B"/>
<path fill-rule="evenodd" clip-rule="evenodd" d="M15.0236 27.6049C15.1499 27.6311 15.2625 27.6311 15.3617 27.6049C15.3923 27.6085 15.4111 27.6275 15.418 27.6631C15.2735 27.7274 15.142 27.7077 15.0236 27.6049Z" fill="#636363"/>
<path fill-rule="evenodd" clip-rule="evenodd" d="M20.1506 27.6049C20.2999 27.5998 20.4317 27.6387 20.545 27.7211C20.3956 27.7263 20.2639 27.6874 20.1506 27.6049Z" fill="#7E7E7E"/>
<path fill-rule="evenodd" clip-rule="evenodd" d="M21.8409 27.6049C21.7276 27.6874 21.5958 27.7263 21.4465 27.7211C21.5597 27.6387 21.6915 27.5998 21.8409 27.6049Z" fill="#949494"/>
<path fill-rule="evenodd" clip-rule="evenodd" d="M18.9112 27.6049C18.6423 27.7437 18.3513 27.8018 18.0378 27.7791C17.8783 27.7693 17.7185 27.7599 17.559 27.7501C17.5074 27.7339 17.4699 27.7048 17.4464 27.6631C17.938 27.7449 18.4263 27.7252 18.9112 27.6049Z" fill="#909090"/>
<path fill-rule="evenodd" clip-rule="evenodd" d="M14.742 28.1855C14.8279 28.1814 14.8843 28.2197 14.9109 28.3015C14.825 28.3055 14.7686 28.2672 14.742 28.1855Z" fill="#787878"/>
<path fill-rule="evenodd" clip-rule="evenodd" d="M15.6434 28.5916C15.7928 28.5864 15.9243 28.6254 16.0378 28.7078C15.8883 28.713 15.7569 28.674 15.6434 28.5916Z" fill="#868686"/>
<path fill-rule="evenodd" clip-rule="evenodd" d="M23.2494 28.6497C23.073 28.7123 22.8854 28.7512 22.686 28.7658C22.7095 28.7239 22.7467 28.695 22.7986 28.6787C22.948 28.6497 23.0978 28.6404 23.2494 28.6497Z" fill="#9B9B9B"/>
<path fill-rule="evenodd" clip-rule="evenodd" d="M18.235 29.4042C18.4634 29.4535 18.6887 29.5215 18.9112 29.6073C19.3051 29.6364 19.6994 29.6463 20.0943 29.6364C19.6914 29.7037 19.278 29.713 18.8549 29.6653C18.6313 29.6051 18.4247 29.518 18.235 29.4042Z" fill="#9A9A9A"/>
<path fill-rule="evenodd" clip-rule="evenodd" d="M17.9534 29.7525C18.1028 29.7473 18.2342 29.7861 18.3477 29.8685C18.1983 29.8737 18.0668 29.8349 17.9534 29.7525Z" fill="#7A7A7A"/>
<path fill-rule="evenodd" clip-rule="evenodd" d="M20.8268 29.8105C20.8205 29.8465 20.802 29.8755 20.7704 29.8976C20.51 29.955 20.2475 29.9841 19.9816 29.9845C20.2521 29.9057 20.5337 29.8477 20.8268 29.8105Z" fill="#A6A6A6"/>
<path fill-rule="evenodd" clip-rule="evenodd" d="M18.4041 29.8685C18.8883 29.9561 19.3765 29.9944 19.869 29.9846C19.5787 30.0513 19.2783 30.0612 18.9675 30.0137C18.7628 30.0049 18.575 29.9568 18.4041 29.8685Z" fill="#BABABA"/>
</g>
</g>
</g>
</g>
<defs>
<clipPath id="clip0_35_1140">
<rect width="39" height="32" fill="white"/>
</clipPath>
</defs>
</svg>
