<svg width="145" height="16" viewBox="0 0 145 16" fill="none" xmlns="http://www.w3.org/2000/svg">
<mask id="mask0_35_1214" style="mask-type:alpha" maskUnits="userSpaceOnUse" x="0" y="0" width="145" height="16">
<g clip-path="url(#clip0_35_1214)">
<mask id="mask1_35_1214" style="mask-type:luminance" maskUnits="userSpaceOnUse" x="0" y="0" width="145" height="16">
<path fill-rule="evenodd" clip-rule="evenodd" d="M0 0.647888H145V15.6127H0V0.647888Z" fill="white"/>
</mask>
<g mask="url(#mask1_35_1214)">
<mask id="mask2_35_1214" style="mask-type:luminance" maskUnits="userSpaceOnUse" x="0" y="0" width="145" height="16">
<path fill-rule="evenodd" clip-rule="evenodd" d="M0 0.647888H144.645V15.2943H0V0.647888Z" fill="white"/>
</mask>
<g mask="url(#mask2_35_1214)">
<mask id="mask3_35_1214" style="mask-type:luminance" maskUnits="userSpaceOnUse" x="0" y="0" width="145" height="16">
<path fill-rule="evenodd" clip-rule="evenodd" d="M0 0.647888H144.645V15.2943H0V0.647888Z" fill="white"/>
</mask>
<g mask="url(#mask3_35_1214)">
<path fill-rule="evenodd" clip-rule="evenodd" d="M4.99246 0.581647C5.50502 0.561907 6.01579 0.581645 6.5248 0.638957C7.12461 0.89909 7.7418 1.1086 8.37637 1.26907C8.86516 1.26907 9.2266 1.07898 9.46178 0.696267C9.56712 0.59406 9.69482 0.556175 9.84486 0.581647C10.2226 2.287 9.45646 2.99321 7.54636 2.70187C6.89334 2.41085 6.2123 2.20102 5.50324 2.07144C4.95167 2.07048 4.52602 2.28126 4.22629 2.70187C4.10534 2.75695 3.97764 2.77637 3.84321 2.75918C3.82193 2.29973 3.84321 1.84123 3.90706 1.38369C4.21885 1.04587 4.58065 0.777463 4.99246 0.581647Z" fill="#FEFFFE" fill-opacity="0.825"/>
<path fill-rule="evenodd" clip-rule="evenodd" d="M5.24786 3.67615C13.0709 2.88524 15.9866 5.90335 13.9949 12.7314C12.9787 14.2684 11.4676 15.128 9.46178 15.3105C1.87068 16.138 -1.04466 13.2151 0.714694 6.54174C1.64545 4.84658 3.1565 3.8917 5.24786 3.67615ZM6.78019 6.42711C10.3542 6.17717 11.7801 7.62971 11.058 10.7828C10.8309 11.7377 10.1712 12.2911 9.0787 12.4449C7.79217 12.6808 6.51523 12.6432 5.24786 12.3302C4.44764 12.109 3.95814 11.631 3.77937 10.8974C3.66692 9.85883 3.70949 8.82721 3.90706 7.8026C4.04824 7.40842 4.32491 7.12186 4.73708 6.94292C5.4018 6.66114 6.08283 6.4892 6.78019 6.42711Z" fill="#FEFFFE" fill-opacity="0.936"/>
<path fill-rule="evenodd" clip-rule="evenodd" d="M40.3632 3.67614C42.9405 3.56853 45.4944 3.72104 48.0249 4.13464C48.0249 5.08952 48.0249 6.04536 48.0249 7.00024C45.9215 6.57836 43.7932 6.40642 41.6402 6.48442C40.863 6.51531 40.139 6.70699 39.4693 7.05755C39.1366 7.28011 38.9025 7.56666 38.767 7.91722C38.4474 9.16885 38.5326 10.3918 39.0224 11.5852C39.7329 12.2373 40.6051 12.563 41.6402 12.5595C42.7919 12.6327 43.9411 12.6146 45.0879 12.5022C45.0879 11.4706 45.0879 10.439 45.0879 9.40734C46.1946 9.40734 47.3013 9.40734 48.408 9.40734C48.408 11.2413 48.408 13.0753 48.408 14.9093C45.5299 15.385 42.6355 15.4811 39.7247 15.1958C36.3752 14.5173 34.8429 12.626 35.1281 9.52196C34.9564 6.16348 36.7016 4.21488 40.3632 3.67614Z" fill="#FEFFFE" fill-opacity="0.934"/>
<path fill-rule="evenodd" clip-rule="evenodd" d="M99.1017 3.67615C106.925 2.88524 109.841 5.90335 107.849 12.7314C106.832 14.2684 105.322 15.128 103.316 15.3105C95.7245 16.138 92.8092 13.2151 94.5689 6.54174C95.4996 4.84658 97.0103 3.8917 99.1017 3.67615ZM100.634 6.42711C104.208 6.17717 105.635 7.62971 104.912 10.7828C104.684 11.7377 104.026 12.2911 102.933 12.4449C101.647 12.6808 100.37 12.6432 99.1017 12.3302C98.3011 12.109 97.812 11.631 97.6332 10.8974C97.5211 9.85883 97.563 8.82721 97.7609 7.8026C97.9014 7.40842 98.1787 7.12186 98.5909 6.94292C99.2549 6.66114 99.937 6.4892 100.634 6.42711Z" fill="#FEFFFE" fill-opacity="0.936"/>
<path fill-rule="evenodd" clip-rule="evenodd" d="M134.6 3.67612C136.601 3.6567 138.602 3.67612 140.602 3.73343C142.543 3.91014 143.714 4.84656 144.113 6.54172C144.346 7.86913 144.133 9.12999 143.475 10.3243C143.126 10.6946 142.723 11.0006 142.262 11.2413C142.922 12.1962 143.581 13.152 144.241 14.1069C144.305 14.4106 144.325 14.7154 144.305 15.0239C143.195 15.0615 142.088 15.0239 140.985 14.9093C140.234 13.849 139.468 12.798 138.686 11.7571C137.504 11.7125 136.333 11.6161 135.175 11.4705C135.111 12.6547 135.089 13.8385 135.111 15.0239C133.962 15.0239 132.813 15.0239 131.663 15.0239C131.642 11.3559 131.663 7.68795 131.727 4.01999C132.695 3.88499 133.653 3.77037 134.6 3.67612ZM137.027 6.42709C138.153 6.36628 139.26 6.46148 140.346 6.71365C140.783 7.21927 140.847 7.77297 140.538 8.3757C140.182 8.62214 139.777 8.75523 139.325 8.77688C137.919 8.84343 136.514 8.82496 135.111 8.71957C135.111 7.99394 135.111 7.26735 135.111 6.54172C135.774 6.57834 136.412 6.54076 137.027 6.42709Z" fill="#FEFFFE" fill-opacity="0.937"/>
<path fill-rule="evenodd" clip-rule="evenodd" d="M19.1662 3.9054C22.9545 3.9054 26.7428 3.9054 30.531 3.9054C30.5733 4.788 30.5307 5.66615 30.4034 6.54174C28.1705 8.41234 25.9574 10.3036 23.7632 12.2156C26.0614 12.2729 28.3599 12.2924 30.6587 12.2729C30.6587 13.1899 30.6587 14.1069 30.6587 15.0239C26.7428 15.0239 22.8268 15.0239 18.9108 15.0239C18.8686 14.1801 18.9112 13.3389 19.0385 12.5022C21.2714 10.6316 23.4848 8.74029 25.6786 6.8283C23.5082 6.77099 21.3374 6.75157 19.1662 6.77099C19.1662 5.81611 19.1662 4.86028 19.1662 3.9054Z" fill="#FEFFFE" fill-opacity="0.926"/>
<path fill-rule="evenodd" clip-rule="evenodd" d="M53.7711 3.9054C57.6442 3.9054 61.5176 3.9054 65.391 3.9054C65.391 4.86028 65.391 5.81611 65.391 6.77099C62.6243 6.77099 59.8576 6.77099 57.0909 6.77099C57.0909 7.22949 57.0909 7.68798 57.0909 8.14647C59.2617 8.14647 61.4325 8.14647 63.6033 8.14647C63.6033 9.10135 63.6033 10.0572 63.6033 11.0121C61.4325 11.0121 59.2617 11.0121 57.0909 11.0121C57.0909 11.4327 57.0909 11.8523 57.0909 12.2729C59.8576 12.2729 62.6243 12.2729 65.391 12.2729C65.391 13.1899 65.391 14.1069 65.391 15.0239C61.475 15.0239 57.5594 15.0239 53.6435 15.0239C53.6016 11.3088 53.6445 7.60329 53.7711 3.9054Z" fill="#FEFFFE" fill-opacity="0.928"/>
<path fill-rule="evenodd" clip-rule="evenodd" d="M76.8832 3.9054C81.1826 3.9054 85.4809 3.9054 89.7803 3.9054C89.7803 4.86028 89.7803 5.81611 89.7803 6.77099C88.2058 6.77099 86.6302 6.77099 85.0556 6.77099C85.0556 9.52197 85.0556 12.2729 85.0556 15.0239C83.9064 15.0239 82.7571 15.0239 81.6079 15.0239C81.6079 12.2729 81.6079 9.52197 81.6079 6.77099C80.0337 6.77099 78.4577 6.77099 76.8832 6.77099C76.8832 5.81611 76.8832 4.86028 76.8832 3.9054Z" fill="#FEFFFE" fill-opacity="0.92"/>
<path fill-rule="evenodd" clip-rule="evenodd" d="M113.404 3.9054C114.511 3.9054 115.616 3.9054 116.724 3.9054C116.671 6.39274 116.735 8.87657 116.915 11.356C117.107 11.8339 117.468 12.1583 118 12.3303C119.484 12.7601 120.931 12.6834 122.342 12.101C122.675 11.8788 122.909 11.5922 123.044 11.2413C123.086 8.83422 123.13 6.42712 123.172 4.02002C124.289 3.90794 125.417 3.86878 126.556 3.9054C126.577 6.38924 126.556 8.87307 126.492 11.356C126.12 13.715 124.608 15.0328 121.959 15.3105C120.64 15.3872 119.319 15.3872 118 15.3105C115.466 15.0593 113.955 13.8181 113.467 11.5852C113.404 9.02559 113.382 6.46629 113.404 3.9054Z" fill="#FEFFFE" fill-opacity="0.938"/>
</g>
</g>
</g>
</g>
</mask>
<g mask="url(#mask0_35_1214)">
<rect y="0.647888" width="145" height="14.9648" fill="black"/>
</g>
<defs>
<clipPath id="clip0_35_1214">
<rect width="145" height="14.9648" fill="white" transform="translate(0 0.647888)"/>
</clipPath>
</defs>
</svg>
